<svg width="1831" height="57" viewBox="0 0 1831 57" fill="none" xmlns="http://www.w3.org/2000/svg">
<rect width="190" height="55" transform="translate(0 1)" fill="white"/>
<rect width="832.73" height="55" transform="translate(193 1)" fill="white"/>
<mask id="mask0_8_11277" style="mask-type:alpha" maskUnits="userSpaceOnUse" x="1024" y="0" width="58" height="56">
<path d="M1024.73 0.799988H1081.73L1027.73 55.8H1024.73V0.799988Z" fill="black"/>
</mask>
<g mask="url(#mask0_8_11277)">
<rect x="1024.73" y="0.799988" width="57" height="55" fill="white"/>
</g>
<mask id="mask1_8_11277" style="mask-type:alpha" maskUnits="userSpaceOnUse" x="1050" y="1" width="520" height="55">
<path d="M1086.73 1H1564.89L1511.89 56H1050.73V37L1086.73 1Z" fill="black"/>
</mask>
<g mask="url(#mask1_8_11277)">
<rect x="1051.7" y="1.5" width="539" height="54" fill="white"/>
<rect x="1051.7" y="1.5" width="539" height="54" stroke="white"/>
</g>
<mask id="mask2_8_11277" style="mask-type:alpha" maskUnits="userSpaceOnUse" x="1532" y="1" width="299" height="55">
<path d="M1569.89 1H1830.4V28.5V56H1532.89V38L1569.89 1Z" fill="black"/>
</mask>
<g mask="url(#mask2_8_11277)">
<rect x="1533.39" y="1.5" width="295.6" height="54" fill="white"/>
<rect x="1533.39" y="1.5" width="295.6" height="54" stroke="white"/>
</g>
</svg>
